<?xml version="1.0" encoding="utf-8"?>
<!-- Svg Vector Icons : http://www.onlinewebfonts.com/icon -->
<!DOCTYPE svg PUBLIC "-//W3C//DTD SVG 1.1//EN" "http://www.w3.org/Graphics/SVG/1.1/DTD/svg11.dtd">
<svg version="1.1" xmlns="http://www.w3.org/2000/svg" xmlns:xlink="http://www.w3.org/1999/xlink" x="0px" y="0px" viewBox="0 0 1000 1000" enable-background="new 0 0 1000 1000" xml:space="preserve">
<metadata> Svg Vector Icons : http://www.onlinewebfonts.com/icon </metadata>
<g><g transform="matrix(1 0 0 -1 0 1008)"><path d="M500,998c134.8,0,250.2-48,346.1-143.9C942,758.2,990,642.8,990,508c0-134.8-48-250.2-143.9-346.1S634.8,18,500,18c-134.8,0-250.2,48-346.1,143.9C58,257.8,10,373.2,10,508c0,134.8,48,250.2,143.9,346.1C249.8,950,365.2,998,500,998z M500,158c96.6,0,179.1,34.2,247.4,102.6C815.8,328.9,850,411.4,850,508s-34.2,179.1-102.6,247.4C679.1,823.8,596.6,858,500,858s-179.1-34.2-247.4-102.6C184.2,687.1,150,604.6,150,508s34.2-179.1,102.6-247.4C320.9,192.2,403.4,158,500,158z M570,578h210V438H570V228H430v210H220v140h210v210h140V578z"/></g></g>
</svg>